# xmcd
#
# Track frame offsets: 
#        150
#        28852
#        49745
#        80425
#        103805
#        128665
#        141650
#        166187
#        188802
#        207692
#        225720
#
# Disc length: 3269 seconds
#
# Revision: 7
# Processed by: cddbd v1.5.2PL0 Copyright (c) Steve Scherf et al.
# Submitted via: ExactAudioCopy v1.0b4
#
DISCID=9e0cc30b
DTITLE=Sade - Promise
DYEAR=1985
DGENRE=Soul
TTITLE0=Is It A Crime
TTITLE1=The Sweetest Taboo
TTITLE2=War Of The Hearts
TTITLE3=You're Not The Man
TTITLE4=Jezebel
TTITLE5=Mr. Wrong
TTITLE6=Punch Drunk
TTITLE7=Never As Good As The First Time
TTITLE8=Fear
TTITLE9=Tar Baby
TTITLE10=Maureen
EXTD=
EXTT0=
EXTT1=
EXTT2=
EXTT3=
EXTT4=
EXTT5=
EXTT6=
EXTT7=
EXTT8=
EXTT9=
EXTT10=
PLAYORDER=
